<?xml version="1.0" encoding="utf-8"?>
<svg version="1.2" baseProfile="tiny-ps" xmlns="http://www.w3.org/2000/svg" width="250px" height="250px" viewBox="0 0 250 250" preserveAspectRatio="xMidYMid meet">
 <g fill="#000000">
  <path d="M0 125 l0 -125 125 0 125 0 0 125 0 125 -125 0 -125 0 0 -125z"/>
 </g>
 <g fill="#86602a">
  <path d="M111.30 222.75 c-10.40 -1.50 -19.15 -4.05 -28.05 -8.20 l-5.05 -2.40 -5 -3.10 c-2.70 -1.75 -6.60 -4.40 -8.65 -5.95 l-3.75 -2.85 -5.30 -5.25 -5.25 -5.25 -3.05 -4 c-7.10 -9.30 -11.50 -17.40 -15.30 -27.90 l-2 -5.60 -1.50 -7 -1.50 -7 -0.25 -10.25 -0.25 -10.25 0.80 -5.95 0.85 -5.95 1.45 -5.65 c8.50 -33 34.10 -59.40 67.20 -69.45 l5.95 -1.80 6.30 -1.05 6.30 -1.05 9.25 -0.05 9.25 -0.05 4.25 0.70 c10.45 1.60 21.05 4.90 30.25 9.30 l5.50 2.65 4.50 2.95 c12.35 8.15 21.35 17.15 29.20 29.15 l3.70 5.70 2.90 6.05 2.85 6 1.80 5.70 1.80 5.70 1 5.30 1.05 5.30 0.50 6.50 0.55 6.50 -0.35 5.75 c-0.55 10.15 -2.10 18.15 -5.50 28 l-1.70 5.10 -2.75 5.60 -2.75 5.60 -2.90 4.30 c-1.60 2.40 -4.30 6.15 -6.05 8.35 l-3.15 4 -5.40 5.15 -5.35 5.15 -4 2.95 c-5.90 4.30 -11.85 7.80 -18.25 10.70 l-5.70 2.55 -5.65 1.75 -5.65 1.80 -5.85 1.05 -5.85 1.10 -10.25 0.15 -10.25 0.15 -4.95 -0.70z m20 -5.25 l6.45 -0.55 6.15 -1.25 6.20 -1.25 4.80 -1.70 c9.70 -3.35 17.45 -7.55 26 -13.95 l4.85 -3.70 5.75 -5.95 5.75 -5.90 3.35 -4.75 3.35 -4.75 3 -5.75 2.95 -5.75 1.75 -4.75 c1 -2.60 2.35 -7.10 3.10 -10 l1.35 -5.25 0.70 -5.70 0.70 -5.75 0 -5.55 0 -5.55 -0.70 -5.80 c-0.85 -6.85 -2.25 -12.90 -4.35 -19.15 l-1.55 -4.50 -2.70 -5.50 c-3.10 -6.20 -5.55 -10.15 -9.90 -16 l-3 -4 -5 -5 -5.05 -5.05 -4 -3 c-5.10 -3.90 -9.65 -6.70 -16 -9.80 l-5 -2.50 -5.85 -1.90 c-7.05 -2.30 -13.35 -3.70 -20.40 -4.55 l-5.25 -0.60 -7.50 0.30 -7.50 0.30 -6.30 1.25 -6.35 1.30 -5.35 1.75 -5.40 1.75 -5.60 2.70 -5.60 2.75 -6.20 4.10 -6.20 4.15 -6.80 6.75 -6.80 6.80 -2.20 3 c-3.80 5.20 -6.95 10.35 -9.50 15.55 l-2.45 5.05 -1.95 5.95 -2 5.95 -1 5.15 -1.05 5.10 -0.50 6.70 -0.55 6.70 0.55 6.40 c1.45 17.15 6.05 30.60 15.25 44.45 l3.65 5.50 3.75 4.30 c4.50 5.15 9.20 9.40 15.75 14.30 l4.85 3.65 7.50 3.75 7.50 3.75 5.35 1.75 5.30 1.70 5.45 1.05 5.45 1.05 5.70 0.40 c3.15 0.20 6 0.45 6.30 0.50 0.30 0 3.45 -0.20 7 -0.45z"/>
  <path d="M120.10 207.15 l0.15 -4.40 3.90 -0.15 3.85 -0.15 0 0.75 0 0.75 -3.10 0.15 -3.15 0.15 -0.15 2.90 -0.15 2.85 3.30 0 3.25 0 0 0.75 0 0.75 -4 0 -4.05 0 0.15 -4.35z"/>
  <path d="M111.65 209.65 c0.15 -0.50 0.45 -2.20 0.65 -3.75 l0.30 -2.90 -1.30 0 -1.35 0 -0.30 -0.75 c-0.15 -0.45 -0.20 -0.85 -0.10 -0.95 0.10 -0.10 2 0.05 4.20 0.40 l4 0.55 0 0.75 0 0.75 -1.75 0 -1.75 0 -0.50 3.25 -0.55 3.25 -0.90 0.15 -0.90 0.20 0.25 -0.95z"/>
  <path d="M103.25 207.80 l-0.70 -1.70 -1.80 -0.30 -1.75 -0.35 0 -0.45 c0 -0.20 0.30 -0.50 0.65 -0.65 l0.60 -0.20 0.90 0.45 0.85 0.45 0 -1.15 c0 -0.65 -0.20 -1.45 -0.45 -1.80 l-0.40 -0.65 -2.75 2.50 -2.80 2.55 -0.60 0 -0.55 0 0.15 -0.65 c0.20 -0.75 6.80 -6.85 7.45 -6.85 l0.40 0 0.50 1.90 c0.30 1 0.90 3.05 1.30 4.55 0.40 1.50 0.75 3.05 0.75 3.40 l0 0.65 -0.55 0 -0.50 0 -0.70 -1.70z"/>
  <path d="M85.30 201.65 c-0.10 -0.50 -0.40 -3 -0.55 -5.55 l-0.35 -4.60 0.75 0.30 0.75 0.25 0.30 1.55 c0.15 0.85 0.30 2.60 0.30 3.95 l0 2.45 0.30 0 c0.20 0 1.80 -0.90 3.60 -2.05 l3.20 -2.05 0.60 0.60 0.55 0.60 -0.95 0.60 c-0.50 0.30 -2.40 1.50 -4.25 2.65 -3.75 2.45 -3.90 2.45 -4.25 1.30z"/>
  <path d="M76.75 197 l-0.35 -0.55 1.30 -2.10 c0.70 -1.15 1.80 -2.75 2.45 -3.55 l1.20 -1.45 0.55 0.35 0.60 0.35 -2.50 3.75 c-1.40 2 -2.60 3.70 -2.75 3.70 -0.10 0 -0.35 -0.25 -0.50 -0.50z"/>
  <path d="M72 193.55 c-0.25 -0.55 -0.50 -1.50 -0.50 -2.20 l0 -1.20 -1.25 -1.15 -1.25 -1.20 0.45 -0.45 0.50 -0.50 1.55 1.35 1.60 1.30 0.90 0 0.95 0 0.50 -0.90 0.50 -0.95 -2.20 -2.15 -2.25 -2.20 -2.55 2.90 -2.60 2.85 -0.50 -0.50 -0.50 -0.50 2.65 -3.25 2.65 -3.30 0.55 0 c0.30 0 1.70 1.10 3.15 2.40 l2.55 2.35 0.30 1.05 0.30 1.05 -1.05 1.30 -1 1.35 -1.25 0 -1.25 0 0.35 1.75 0.30 1.75 -0.55 0 -0.50 0 -0.55 -0.95z"/>
  <path d="M143.75 188.60 c-0.85 -0.70 -6.70 -3.15 -11.70 -4.85 l-4.80 -1.65 1.25 -0.35 1.30 -0.30 3.95 1.70 c4 1.70 9.35 4.35 10.75 5.30 l0.75 0.55 -0.50 0 c-0.30 0 -0.75 -0.20 -1 -0.40z"/>
  <path d="M106.25 188.05 c0.75 -0.70 7.15 -3.80 11.35 -5.50 5.35 -2.10 9.65 -3.35 18.35 -5.30 14.50 -3.30 19.15 -5.50 27.90 -13.10 l3.10 -2.75 2.75 -3.55 c5.30 -6.95 8.10 -12.70 10.45 -21.55 l1.10 -4.05 -0.05 -8.50 -0.05 -8.50 -1.30 -4.85 -1.30 -4.85 -2 -4.25 c-1.10 -2.35 -3.25 -6.20 -4.75 -8.55 l-2.75 -4.25 -4.25 -4.10 -4.20 -4.15 -2.25 0.15 -2.20 0.20 -1.55 -0.80 c-0.85 -0.45 -2.85 -2 -4.50 -3.50 l-2.95 -2.75 -3.65 -1 c-2 -0.55 -3.75 -1.15 -3.90 -1.30 l-0.25 -0.25 0.95 0 c0.50 0 1.85 0.25 2.95 0.55 1.10 0.30 4 0.75 6.40 0.95 l4.40 0.45 2.25 1.05 2.20 1.10 1 1.40 1 1.40 0 0.95 0 0.90 3.75 2.85 3.70 2.90 2.95 3.40 c1.60 1.85 3.95 5.10 5.30 7.20 l2.35 3.85 1.65 3.90 1.65 3.90 1.20 4.75 1.15 4.75 0 7.25 0.05 7.25 -0.70 3.50 c-1.40 7.10 -4.75 15.15 -8.70 21 l-2.05 3 -4.20 4.35 -4.15 4.30 -3.60 2.50 c-2 1.35 -4.80 3.10 -6.30 3.85 -4.85 2.40 -7 2.95 -24.40 6.25 l-5.40 1.05 -5.75 1.75 c-3.15 1 -7.45 2.55 -9.50 3.50 -2.05 0.95 -3.50 1.55 -3.25 1.25z"/>
  <path d="M62.05 180.90 l-1.55 -1.60 0 -0.65 0 -0.65 0.50 0 c0.30 0 1.15 0.75 2 1.65 l1.45 1.60 0.90 -0.55 0.90 -0.55 0.15 -0.80 0.15 -0.80 -1.80 -2 -1.85 -2.05 -2.55 2.25 -2.60 2.25 -0.60 0 -0.65 0 0.05 -0.60 0 -0.65 3.15 -2.60 c1.75 -1.45 3.30 -2.65 3.45 -2.65 0.15 0 1.30 1.25 2.55 2.80 l2.30 2.80 0 1.40 0 1.45 -1.10 0.75 -1.10 0.80 -1.10 0 -1.10 0 -1.55 -1.60z"/>
  <path d="M117 180 c-0.95 -0.20 -4.45 -0.90 -7.75 -1.50 l-6 -1.15 -4.05 -1.45 -4.05 -1.45 -4.65 -3 -4.70 -3.05 -4.25 -4.35 -4.30 -4.30 -2.40 -3.65 c-1.35 -2 -3.30 -5.50 -4.40 -7.80 l-1.95 -4.20 -1.25 -4.65 -1.25 -4.70 -0.40 -4.90 -0.45 -4.85 0.45 -4.90 0.40 -4.85 1.25 -4.55 1.20 -4.55 1.85 -3.95 c1 -2.15 2.85 -5.50 4.10 -7.45 l2.25 -3.50 3.80 -3.90 c2.10 -2.15 4.85 -4.75 6.15 -5.70 l2.30 -1.80 0.25 -1.30 0.30 -1.35 1.30 -1.30 c0.70 -0.70 2.10 -1.70 3.10 -2.15 l1.75 -0.85 4.60 -0.40 c2.50 -0.25 5.30 -0.65 6.20 -0.95 l1.60 -0.50 0 0.45 0 0.45 -2.80 0.85 -2.80 0.80 -3.30 3 -3.30 3 -1.20 0.45 -1.15 0.45 -2.20 0 -2.20 0 -3.35 3.10 -3.35 3.15 -2.85 3.75 c-6.45 8.60 -9.85 17.25 -11.05 28.50 l-0.55 5.20 0.55 5.10 0.60 5.10 1.25 4.45 1.25 4.40 2.20 4.55 2.20 4.55 2.95 3.95 2.95 3.95 3.55 3.35 c8.20 7.70 13.60 10.30 28.55 13.65 4.25 0.95 7.85 1.85 8 2 l0.25 0.30 -0.70 0.45 c-0.85 0.55 -2.05 0.55 -4.50 0z"/>
  <path d="M187.25 178.20 l-3 -2.25 -0.15 -0.60 -0.15 -0.60 2.50 -2.70 2.50 -2.70 1.90 0.30 1.90 0.30 1.10 1.40 1.15 1.40 0 1.25 0 1.25 -1.80 2.60 -1.80 2.65 -0.60 0 c-0.30 0 -1.90 -1.05 -3.55 -2.30z m4.90 -1.55 c0.75 -1 1.35 -2.10 1.35 -2.50 l0 -0.70 -1.25 -1.20 -1.20 -1.25 -0.80 0 -0.80 0 -1.50 1.60 -1.45 1.60 0 0.80 0.05 0.75 1.85 1.35 c1 0.75 1.95 1.35 2.10 1.35 0.15 0 0.85 -0.80 1.65 -1.80z"/>
  <path d="M165.85 171.10 c-1.15 -1.25 -1.05 -1.75 0.45 -3.60 l1.35 -1.55 1.80 -0.90 c1 -0.50 3.05 -1.20 4.55 -1.50 l2.75 -0.55 2.75 0.40 2.75 0.45 -3 2.95 -3 3 -2.30 1.10 -2.25 1.10 -2.55 0 -2.50 0 -0.80 -0.90z"/>
  <path d="M159.70 163.45 l-0.95 -1.05 0.05 -2.65 0.10 -2.60 1.20 -2.45 c1.55 -3.05 2.55 -4.70 2.90 -4.70 0.15 0 0.80 1 1.40 2.25 l1.10 2.25 0.30 1.95 0.30 1.95 -0.60 1.80 -0.55 1.75 -1.50 1.30 c-0.85 0.70 -1.80 1.25 -2.15 1.25 l-0.65 0 -0.95 -1.05z"/>
  <path d="M110.25 160.10 l-3.50 -1.40 -3 -1.90 c-1.65 -1.05 -4.05 -2.85 -5.40 -3.95 l-2.40 -2.05 -2.70 -3.50 -2.70 -3.55 -1.80 -3.85 -1.75 -3.85 -1.05 -4.40 -1.05 -4.40 0.25 -5.75 0.25 -5.75 0.80 -3 0.80 -3 2.20 -4.50 2.25 -4.50 2.70 -3.30 2.75 -3.30 3.35 -2.50 3.35 -2.50 3.65 -1.80 3.65 -1.80 3.45 -1 3.50 -0.95 4.20 -0.35 4.20 -0.35 3.50 0.60 c1.95 0.30 5.30 1.10 7.50 1.75 l4 1.20 3.95 2.35 3.95 2.30 3.85 3.85 3.85 3.80 2.35 4 2.35 4 1.20 3.90 1.25 3.90 0.50 4.35 0.50 4.35 -0.50 4.10 -0.45 4.05 -1.30 3.95 -1.30 3.90 -2.10 3.75 -2.10 3.70 -4 4.05 -4 4.10 -4 2.30 -3.95 2.35 -3.20 1.05 -3.15 1.05 -0.30 -0.30 -0.30 -0.30 -0.05 -7.60 -0.05 -7.65 0.90 -3.70 c0.50 -2 1.45 -5.05 2.15 -6.75 l1.30 -3.05 2.25 -3.40 2.25 -3.40 2.85 -2.35 c1.55 -1.30 3.40 -2.75 4.05 -3.20 l1.25 -0.85 -2.75 0.75 -2.75 0.80 -3.90 2 -3.85 2 -2.95 2.85 -2.90 2.80 -2 3.10 c-1.75 2.70 -3.85 7.15 -4.90 10.40 l-0.30 0.95 -1.65 -4.05 -1.65 -4.05 -2.10 -3.30 -2.15 -3.30 -2.95 -2.70 -2.90 -2.70 -2.75 -1.55 c-2.20 -1.25 -9.20 -4.05 -10.20 -4.05 -0.10 0 1.10 1 2.70 2.20 6.75 5 10.50 10.85 13 20.05 l0.80 3 0.25 6.30 0.30 6.35 -0.35 2.30 -0.35 2.30 -0.60 0 c-0.35 -0.05 -2.15 -0.65 -4.10 -1.40z m16.80 -29.65 c2 -0.70 3.80 -2.20 4.75 -4.05 l0.70 -1.35 0 -2.15 0 -2.15 -1 -1.65 -1 -1.60 -1.60 -1 -1.65 -1 -2.45 0 -2.45 0 -1.75 1.10 -1.70 1.05 -0.95 2.05 -0.95 2.05 0 1.50 0 1.50 1.15 2 1.10 2 2.25 1.15 c2.50 1.25 3.20 1.30 5.55 0.55z m-20.55 -15.95 l0 -4 0.45 0 c0.25 0 1.25 0.35 2.25 0.75 l1.80 0.75 0 3.30 0 3.35 2.15 -2 2.10 -1.95 2.50 -1.20 2.50 -1.25 4.50 0 4.50 0 2.90 1.45 2.95 1.40 1.65 1.70 c0.95 0.95 1.85 1.70 1.95 1.70 l0.30 0 -0.25 -3 -0.25 -3 1.15 -0.70 c0.60 -0.35 3.85 -1.75 7.20 -3.10 3.40 -1.35 6.15 -2.60 6.15 -2.75 0 -0.20 -6.30 -4.30 -14.05 -9.10 l-14.05 -8.80 -13.30 8.30 c-7.35 4.55 -13.80 8.60 -14.30 8.95 l-0.95 0.65 2.35 1.05 c1.30 0.55 2.95 1.15 3.60 1.30 l1.20 0.30 0 -1.05 0 -1.05 0.50 0 0.50 0 0.10 1.90 c0.05 1 0.15 3.45 0.20 5.35 0.05 1.95 0.10 3.80 0.15 4.15 l0.05 0.60 0.75 0 0.75 0 0 -4z"/>
  <path d="M175.60 160.40 l-0.60 -0.60 0 -1.40 0 -1.40 1.80 -2 1.80 -1.95 2.55 -1.25 2.60 -1.25 2.90 -0.45 2.85 -0.45 0 0.30 c0 0.15 -0.65 1.45 -1.45 2.80 l-1.45 2.50 -2.05 2.10 -2.05 2.05 -1.70 0.80 -1.70 0.80 -1.45 0 -1.45 0 -0.60 -0.60z"/>
  <path d="M168.15 154.75 l-1 -0.70 -0.60 -2.30 -0.55 -2.25 0.70 -3.50 c0.40 -1.90 0.95 -3.85 1.20 -4.30 l0.45 -0.80 1.95 2.30 c2.15 2.55 2.60 3.60 2.65 6.45 l0.05 1.90 -0.75 1.45 -0.75 1.45 -0.95 0.55 c-1.25 0.65 -1.15 0.65 -2.40 -0.25z"/>
  <path d="M182.10 147.40 l-0.60 -0.60 0 -1 c0 -0.60 0.45 -1.95 0.95 -3.05 l0.95 -2 1.65 -1.60 1.70 -1.55 3.15 -1.60 3.15 -1.60 0.30 0.25 0.25 0.30 -0.80 2.80 c-1.40 4.75 -3.65 8.15 -6.40 9.55 l-1.35 0.70 -1.20 0 -1.15 0 -0.60 -0.60z"/>
  <path d="M173.05 143.20 c-0.60 -0.75 -1.30 -2.15 -1.60 -3.15 l-0.50 -1.80 0.15 -3.65 0.15 -3.65 1.70 1.15 c0.95 0.65 2.35 1.95 3.15 2.95 l1.45 1.80 0.30 1.80 0.25 1.80 -0.30 1.25 c-0.15 0.65 -0.65 1.60 -1.10 2 l-0.75 0.80 -0.95 0 -0.95 0 -1 -1.30z"/>
  <path d="M185.60 133.40 l-0.60 -0.60 0 -1.90 0 -1.95 0.75 -1.75 c0.40 -1 1.30 -2.50 2.05 -3.35 1.35 -1.65 5.15 -4.80 5.85 -4.85 l0.35 0 0 1.65 c0 0.90 -0.25 3 -0.55 4.65 l-0.55 2.95 -1.15 2.05 -1.20 2.05 -1.25 0.85 c-0.70 0.45 -1.70 0.80 -2.20 0.80 l-0.90 0 -0.60 -0.60z"/>
  <path d="M175.25 130.75 l-1.60 -1.75 -0.80 -3 c-0.50 -1.65 -0.85 -3.45 -0.85 -4 l0 -1 0.50 0 c1.05 0 4.25 1.60 5.40 2.65 0.65 0.60 1.50 1.70 1.90 2.45 l0.70 1.35 0 1.55 0 1.55 -0.50 1 -0.55 0.95 -1.30 0 -1.25 0 -1.65 -1.75z"/>
  <path d="M210.30 119.90 c-0.15 -1.20 -0.35 -2.70 -0.40 -3.40 l-0.15 -1.25 -0.95 0 -0.95 0 -0.05 3 -0.05 3 -1.80 0.15 -1.75 0.15 -0.80 -0.90 -0.85 -0.90 -0.45 -4.25 -0.45 -4.25 0.30 -0.35 0.30 -0.35 0.55 0.35 0.55 0.35 0.45 3.50 0.45 3.50 0.95 0 1 0 -0.15 -3.10 -0.10 -3.05 0.95 -0.30 0.95 -0.35 1.30 0.50 1.30 0.50 0.50 0.95 0.50 0.95 0.35 3.80 0.35 3.85 -0.80 0 -0.80 0 -0.25 -2.10z"/>
  <path d="M174.45 118.15 l-1.85 -1.90 -1.35 -2.65 -1.30 -2.70 0.30 -0.30 0.30 -0.30 2.80 0.60 2.75 0.55 1.70 1.30 1.65 1.30 0.65 2 0.60 2.05 -0.55 0.80 -0.50 0.85 -1.70 0.15 -1.70 0.15 -1.80 -1.90z"/>
  <path d="M60.30 117.95 l-1.30 -1.55 -0.35 -1.30 c-0.20 -0.75 -0.35 -2.60 -0.30 -4.10 0.05 -1.50 0.10 -5.90 0.15 -9.75 l0.10 -7 0.65 4.65 0.60 4.65 1.50 2.10 c0.85 1.15 2 3.05 2.60 4.20 l1.05 2.10 0 2.95 0 2.95 -0.90 0.80 -0.95 0.85 -0.75 0 -0.80 0 -1.30 -1.55z"/>
  <path d="M185.30 118.40 l-0.80 -1.10 0 -1.80 c0 -0.95 0.25 -2.65 0.55 -3.75 l0.55 -2 2.05 -3 2.05 -3 0.55 -3.25 0.55 -3.25 0.35 8 0.35 8 -0.55 1.95 -0.55 1.95 -1.15 1.15 -1.20 1.20 -1 0 -1 0 -0.75 -1.10z"/>
  <path d="M73.40 107.95 l-0.90 -0.50 0 -1.40 0 -1.40 1.05 -1.35 c1.20 -1.55 2.55 -2.30 4.95 -2.85 l1.75 -0.40 1.90 0.30 c1 0.15 1.85 0.40 1.85 0.60 0 0.15 -1.05 1.55 -2.35 3 l-2.35 2.70 -2 0.90 c-2.35 1.05 -2.75 1.10 -3.90 0.40z"/>
  <path d="M173.35 108 c-2 -0.60 -4.40 -2.55 -6.05 -4.95 l-1.45 -2.05 0.30 -0.35 0.35 -0.30 2.65 0 2.70 0 2.15 1.20 2.10 1.20 0.70 1.35 c0.90 1.75 0.90 2.65 -0.10 3.60 -0.85 0.90 -1.30 0.90 -3.35 0.30z"/>
  <path d="M199.40 102.40 l-1.30 -4.15 0.45 -0.85 0.50 -0.90 3.65 0 3.65 0 0.75 0.90 0.80 0.85 1.05 3.45 c0.60 1.85 1.05 3.70 1.05 4.10 l0 0.70 -0.75 0 -0.70 0 -0.85 -2.85 c-0.45 -1.60 -1.05 -3.20 -1.30 -3.50 l-0.50 -0.65 -2.45 0 -2.40 0 -0.25 0.45 -0.30 0.45 0.75 2.10 c0.40 1.15 0.75 2.55 0.75 3.05 l0 0.95 -0.65 0 -0.70 0 -1.25 -4.10z"/>
  <path d="M203.95 103.55 l-0.75 -2.90 0.85 0.20 0.90 0.25 0.75 2.30 c0.45 1.25 0.80 2.45 0.80 2.70 l0 0.40 -0.90 0 -0.85 0 -0.80 -2.95z"/>
  <path d="M64.15 104.20 l-0.85 -1.30 -0.20 -2.55 -0.20 -2.60 1.05 -3 c0.60 -1.65 1.60 -4.90 2.30 -7.15 0.65 -2.30 1.35 -4.35 1.55 -4.50 l0.35 -0.35 -0.35 1.25 c-0.20 0.70 -0.45 2.40 -0.65 3.85 l-0.30 2.60 1.05 2.25 c0.60 1.25 1.20 3.15 1.40 4.25 l0.30 2 -0.30 2.20 -0.35 2.20 -1 1.10 -1 1.05 -0.95 0 -1 0 -0.85 -1.30z"/>
  <path d="M181.80 104.55 l-0.85 -0.95 -0.40 -2.45 -0.35 -2.40 0.40 -2.20 c0.25 -1.25 0.85 -3.20 1.45 -4.40 l1.05 -2.10 -0.75 -3.60 -0.75 -3.55 0.40 0.45 c0.25 0.20 0.90 2.10 1.45 4.25 0.55 2.10 1.35 4.55 1.85 5.50 l0.90 1.65 0.20 4 0.20 4 -1.10 1.40 -1.05 1.35 -0.90 0 -0.90 0 -0.85 -0.95z"/>
  <path d="M78.80 96.70 c-0.45 -0.40 -0.80 -1.10 -0.80 -1.50 l0 -0.70 1.40 -1.50 1.35 -1.55 1.85 -0.40 1.85 -0.45 2.30 0.45 c1.25 0.25 2.65 0.65 3.10 0.85 l0.80 0.45 -2.60 2.05 -2.60 2.05 -1.85 0.55 c-1 0.25 -2.35 0.50 -2.95 0.50 l-1.10 0 -0.75 -0.80z"/>
  <path d="M164.75 96.45 c-2.40 -1.30 -5.25 -3.45 -5.25 -3.95 0 -0.20 0.65 -0.65 1.50 -1 l1.50 -0.60 2.40 0 2.45 0 1.20 0.60 c0.65 0.35 1.60 1.10 2.05 1.70 l0.90 1.05 0 1.05 0 1 -0.60 0.60 -0.60 0.60 -1.80 0 -1.75 0 -2 -1.05z"/>
  <path d="M71.50 92 l-1 -1 0 -2.10 0 -2.15 1 -2.20 c0.55 -1.20 1.80 -3.25 2.80 -4.60 0.95 -1.30 2.45 -3.70 3.30 -5.30 2.10 -4 2.80 -4.55 1.10 -0.90 l-1.40 3 -0.05 5.50 0 5.50 -1.15 2.10 -1.10 2.10 -0.95 0.55 c-1.30 0.65 -1.40 0.65 -2.55 -0.50z"/>
  <path d="M175.30 91.95 l-1.35 -1.10 -0.50 -1.30 c-0.30 -0.70 -0.70 -2.25 -0.90 -3.40 l-0.40 -2.10 0.45 -2.70 0.50 -2.75 -1.85 -3.90 -1.80 -3.95 0.70 0.75 c0.40 0.40 1.35 2 2.15 3.50 0.80 1.50 2.05 3.50 2.80 4.40 0.80 0.90 2 2.75 2.70 4.15 l1.25 2.55 0.05 2.45 0 2.50 -0.90 1 c-1.10 1.20 -1.25 1.20 -2.90 -0.10z"/>
  <path d="M193.80 88.70 l-1.95 -3.85 0.50 -0.80 0.50 -0.80 3.60 -0.75 3.55 -0.70 0.75 0.70 c0.40 0.40 1.60 2.35 2.65 4.35 l2 3.60 -0.30 0.25 c-0.15 0.15 -0.55 0.30 -0.85 0.30 l-0.60 0 -1.60 -3 -1.60 -3 -0.85 0 c-0.45 0 -1.70 0.25 -2.70 0.55 l-1.90 0.50 0 0.60 c0 0.35 0.55 1.65 1.25 2.95 1.50 2.80 1.50 2.90 0.40 2.90 l-0.90 0 -1.95 -3.80z"/>
  <path d="M51.90 85.65 l-3.35 -3.40 0.85 -1.10 0.85 -1.05 3.40 3.10 3.40 3.10 -0.60 1.35 c-0.35 0.75 -0.75 1.35 -0.90 1.35 -0.20 0 -1.85 -1.50 -3.65 -3.35z"/>
  <path d="M87 87.50 l-1 -1 0.45 -1.10 0.40 -1.10 1.70 -0.90 1.70 -0.90 1.50 0 1.55 0 2.60 1.30 2.65 1.30 -0.20 0.55 -0.15 0.55 -2.75 1.15 -2.70 1.10 -2.35 0.05 -2.40 0 -1 -1z"/>
  <path d="M154.65 87.60 c-1.15 -0.50 -2.40 -1.15 -2.75 -1.50 l-0.65 -0.65 1.15 -1 c0.65 -0.50 2.05 -1.20 3.10 -1.50 l1.90 -0.60 1.75 0.35 1.75 0.35 1.30 1 1.30 1 0 0.95 0 0.95 -1.10 0.75 -1.10 0.80 -2.30 -0.05 -2.25 0 -2.10 -0.85z"/>
  <path d="M81.10 81.40 l-0.60 -0.60 0 -1.75 0 -1.70 1.20 -2.05 1.20 -2.05 5.20 -4.75 c4.70 -4.30 5.15 -4.50 2.10 -1 l-1.10 1.25 -0.35 3.25 -0.30 3.20 -0.75 1.80 -0.75 1.75 -1.55 1.65 -1.60 1.60 -1.05 0 -1.05 0 -0.60 -0.60z"/>
  <path d="M164.25 80.25 l-1.65 -1.70 -0.80 -2.35 -0.80 -2.40 0 -2.20 0 -2.20 -2.05 -2.45 -2.05 -2.45 0.55 0 c0.25 0 1.35 1 2.35 2.20 1 1.25 2.85 2.95 4.05 3.85 l2.20 1.65 1.45 2.30 1.50 2.35 0 1.80 c0 0.95 -0.15 2.10 -0.30 2.55 l-0.30 0.80 -1.25 0 -1.30 0 -1.60 -1.75z"/>
  <path d="M187.75 79 l-0.95 -1 0.50 -0.45 c0.55 -0.50 7.25 -3.05 8 -3.05 0.60 0 2.50 1.90 2.15 2.15 -0.30 0.25 -8.25 3.35 -8.55 3.35 -0.15 0 -0.65 -0.45 -1.15 -1z"/>
  <path d="M58.85 76.25 l-2.10 -2.80 -1.30 1.55 -1.30 1.50 -0.30 -0.35 c-0.20 -0.15 -0.35 -0.60 -0.35 -1 l0 -0.70 3.05 -3.95 c1.65 -2.20 3.25 -4 3.50 -4 l0.45 0 0 0.80 0 0.80 -1 1.25 -1 1.25 1.60 2.25 c0.90 1.20 1.90 2.45 2.25 2.75 l0.65 0.50 0 0.85 c0 0.90 -0.90 2.05 -1.60 2.05 -0.20 0 -1.35 -1.25 -2.55 -2.75z"/>
  <path d="M109.50 71.25 c0 -0.15 0.10 -0.25 0.25 -0.25 0.15 0 0.25 0.10 0.25 0.25 0 0.15 -0.10 0.25 -0.25 0.25 -0.15 0 -0.25 -0.10 -0.25 -0.25z"/>
  <path d="M180.05 69.80 l-1.25 -1.30 1.20 -2.15 c0.65 -1.15 1.70 -2.95 2.40 -4.05 l1.20 -1.95 1.05 1.05 1.05 1.05 -1.35 2.45 c-0.75 1.40 -1.35 2.65 -1.35 2.80 l0 0.30 3.90 -0.30 3.85 -0.30 1.15 1.20 1.15 1.25 -3.65 0.35 c-2 0.15 -4.65 0.45 -5.90 0.60 l-2.25 0.30 -1.20 -1.30z"/>
  <path d="M67.25 68.25 c-0.40 -0.70 -1.10 -1.80 -1.50 -2.50 l-0.75 -1.20 0 -1.55 0 -1.55 2.55 -2.35 c1.40 -1.30 2.90 -2.55 3.30 -2.75 l0.70 -0.45 0.75 0.30 0.75 0.30 1.40 3 1.45 3.05 -0.25 0.95 -0.25 0.95 -2.65 2.55 -2.70 2.50 -1 0 -1.05 0 -0.75 -1.25z m5.75 -4.45 c0 -0.70 -2.15 -4.80 -2.55 -4.80 -0.15 0 -0.90 0.65 -1.70 1.50 l-1.45 1.50 0.75 1.35 c0.35 0.80 1 1.90 1.40 2.55 l0.70 1.15 1.40 -1.35 c0.80 -0.75 1.45 -1.65 1.45 -1.90z"/>
  <path d="M171.15 62.20 l-1.05 -0.75 0.50 -1.50 0.50 -1.45 -1.15 -1 c-1.50 -1.20 -1.55 -1.20 -3.10 0 l-1.30 1.05 -1.05 -0.65 c-0.55 -0.35 -1 -0.85 -0.95 -1.15 0 -0.25 1.50 -1.75 3.35 -3.30 l3.30 -2.85 1.15 0.55 1.15 0.50 0 0.60 0 0.65 -1.25 0.80 -1.25 0.80 0 0.70 0 0.65 1.75 0.95 1.75 0.90 0.85 -0.85 0.90 -0.85 -1.50 -1.25 -1.50 -1.20 0.75 -0.10 c1.45 -0.15 2.25 0.15 3.90 1.35 l1.60 1.25 0 0.70 0 0.65 -1.55 1.30 -1.55 1.30 -0.90 0 -0.90 0 -0.35 1.50 c-0.35 1.70 -0.55 1.75 -2.10 0.70z"/>
  <path d="M78.60 56.15 l-1.15 -4.35 0.85 -0.65 c0.50 -0.35 1.10 -0.60 1.35 -0.50 l0.50 0.15 1.25 4.10 1.25 4.05 -0.65 0.80 -0.60 0.75 -0.85 0 -0.80 0 -1.15 -4.35z"/>
  <path d="M85.55 53.20 l-1.10 -3.75 -1.70 1.05 -1.75 1.10 0 -1.05 0 -1 2.30 -1.35 2.30 -1.35 0.85 0.50 0.80 0.50 0.95 3.30 0.95 3.30 -0.30 0.75 c-0.15 0.40 -0.70 0.95 -1.25 1.25 l-0.95 0.50 -1.10 -3.75z"/>
  <path d="M155.50 53.30 c-4.50 -1.85 -5 -2.15 -5 -3.05 l0 -0.65 2.30 -2.80 2.25 -2.80 1.10 0 1.10 0 3.90 1.55 3.85 1.55 0 0.45 c0 0.25 -0.30 0.60 -0.65 0.70 l-0.60 0.25 -3.20 -1.25 c-1.75 -0.65 -3.35 -1.15 -3.55 -1 -0.20 0.10 -0.95 1.10 -1.75 2.25 l-1.40 2.05 0.45 0.40 c0.25 0.25 1.65 0.80 3.10 1.35 l2.60 0.90 0 0.60 c0 1.15 -0.70 1.05 -4.50 -0.50z"/>
  <path d="M158.90 50.40 c-2.50 -1.05 -2.90 -1.60 -1.65 -2.10 l0.70 -0.25 2.30 1 2.30 1 -0.20 0.60 c-0.25 0.85 -0.95 0.85 -3.45 -0.25z"/>
  <path d="M99 46.30 l0 -4.70 0.80 -0.30 c0.45 -0.15 1.10 -0.30 1.50 -0.30 l0.70 0 0 4.70 0 4.70 -1.10 0.30 c-0.65 0.15 -1.30 0.30 -1.50 0.30 l-0.40 0 0 -4.70z"/>
  <path d="M106.50 47 l0 -2 -0.45 0 c-0.25 0 -1.10 0.25 -1.80 0.50 l-1.30 0.50 0.15 -0.85 0.15 -0.90 1.65 -0.50 1.60 -0.45 0 -1.85 0 -1.85 0.80 -0.30 c0.45 -0.15 1.10 -0.30 1.50 -0.30 l0.70 0 0 4.70 0 4.70 -1.10 0.30 c-0.65 0.15 -1.30 0.30 -1.50 0.30 l-0.40 0 0 -2z"/>
  <path d="M138.55 48.30 l-2.70 -0.55 -0.20 -0.60 -0.20 -0.55 0.45 -0.30 0.45 -0.25 3.20 0.65 3.20 0.65 0.65 -0.25 0.65 -0.25 -0.15 -0.75 -0.15 -0.80 -2.45 -0.50 -2.45 -0.55 -0.50 -0.85 -0.55 -0.85 0.70 -1.30 0.70 -1.30 1.20 -0.30 1.20 -0.30 3.85 0.75 3.80 0.70 0 0.75 0 0.70 -1.25 -0.05 c-0.70 -0.05 -2.45 -0.25 -3.95 -0.45 l-2.65 -0.40 0.20 0.95 0.15 0.90 2.25 0.45 c1.25 0.25 2.55 0.70 2.90 0.95 l0.60 0.50 0 0.85 0 0.85 -1 1.10 -1.05 1.10 -2.10 -0.05 c-1.15 -0.05 -3.30 -0.30 -4.80 -0.65z"/>
  <path d="M114.35 45.40 c0.15 -1.20 0.55 -3.25 0.85 -4.65 l0.55 -2.50 1.70 -0.15 1.65 -0.15 -0.30 0.90 c-0.15 0.50 -0.40 1.50 -0.60 2.30 l-0.30 1.35 1.25 0 c0.70 0 1.85 -0.20 2.55 -0.50 l1.30 -0.50 0 -0.95 0 -1 -1.85 -0.15 -1.85 -0.15 0.90 -0.85 0.85 -0.90 2.45 0 2.40 0 0.25 0.65 0.25 0.65 -0.25 1.50 -0.30 1.45 -0.70 0.80 -0.70 0.85 0.30 1.80 0.35 1.80 -1.45 0 -1.45 0 -0.55 -1.55 -0.60 -1.50 -1.60 0.15 -1.65 0.15 -0.40 1.65 -0.45 1.60 -1.45 0 -1.50 0 0.35 -2.10z"/>
 </g>
 <g fill="#c49d4b">
  <path d="M136.75 222 l-0.30 -0.50 -1.55 0 -1.55 0 -2.45 -1.55 c-1.30 -0.85 -2.40 -1.70 -2.40 -1.90 l0 -0.35 1.15 0 c2.40 0.05 8.35 -0.80 14.25 -2 l6.20 -1.25 4.80 -1.70 c9.35 -3.25 17.05 -7.30 25.10 -13.30 l4.25 -3.10 4.70 -4.55 c2.55 -2.50 6.25 -6.40 8.15 -8.70 l3.50 -4.15 0.75 0.25 c1.05 0.40 3.60 2.45 3.60 2.95 0.05 0.20 -0.15 0.65 -0.45 1 -0.25 0.35 -1.50 1.95 -2.80 3.60 -5.75 7.40 -15.15 15.85 -23.95 21.55 l-4.50 2.90 -6.05 2.85 -6 2.85 -5.55 1.80 c-3.05 1 -7.20 2.15 -9.20 2.60 l-3.65 0.75 -1.90 -0.30 -1.90 -0.35 0 0.55 0 0.55 -0.95 0 -1 0 -0.30 -0.50z"/>
  <path d="M125 211 c0 -0.25 0.20 -0.50 0.45 -0.50 0.25 0 0.90 -0.15 1.40 -0.35 l0.90 -0.35 -0.85 0.85 c-0.45 0.45 -1.05 0.85 -1.35 0.85 l-0.55 0 0 -0.50z"/>
  <path d="M137.75 209.95 c-0.10 -0.40 -0.55 -2.25 -0.95 -4.20 l-0.70 -3.45 0.25 -0.45 0.25 -0.40 0.55 0.20 0.60 0.20 0.50 3.20 0.50 3.20 1.50 0 c0.85 -0.05 2.25 -0.20 3.15 -0.40 l1.60 -0.30 0 0.90 0 0.90 -2.25 0.30 c-1.25 0.20 -2.80 0.45 -3.50 0.65 l-1.25 0.30 -0.25 -0.65z"/>
  <path d="M120.20 206.40 l0.05 -3.65 3.90 -0.15 3.85 -0.15 0 0.80 0 0.75 -2.95 0 -3 0 -0.25 0.45 c-0.15 0.25 -0.35 1.60 -0.40 3 l-0.10 2.55 -0.55 0 -0.55 0 0 -3.60z"/>
  <path d="M147.75 205.15 c-0.50 -1.60 -1 -3.65 -1.15 -4.60 l-0.25 -1.70 0.65 0.25 0.65 0.20 1.20 3.95 c0.60 2.15 1.15 4.15 1.15 4.35 l0 0.40 -0.70 0 -0.75 0 -0.80 -2.85z"/>
  <path d="M123 206.70 l0 -0.75 2.35 0.15 2.30 0.15 0.25 0.65 0.20 0.60 -2.55 0 -2.55 0 0 -0.80z"/>
  <path d="M112.85 205.90 c-0.50 -1.70 -0.45 -1.90 0.40 -1.90 l0.75 0 0 0.90 c0 0.45 -0.20 1.15 -0.45 1.50 l-0.40 0.70 -0.30 -1.20z"/>
  <path d="M153.10 202.65 c-0.35 -2.15 -0.60 -4.30 -0.60 -4.75 l0 -0.90 0.45 0 c0.25 0 1.55 1 2.95 2.25 1.35 1.25 2.65 2.25 2.80 2.25 l0.30 0 0 -3.50 0 -3.50 0.65 0 0.60 0 2.70 3.30 2.65 3.30 -0.45 0.45 -0.50 0.50 -2 -2.25 c-1.10 -1.25 -2.10 -2.30 -2.25 -2.30 -0.10 0 -0.10 1.35 0 3 l0.20 3 -0.85 0.30 -0.80 0.35 -1.90 -1.85 c-1 -1 -2.05 -1.80 -2.25 -1.80 l-0.45 0 0.35 3 0.35 3 -0.70 0 -0.70 0 -0.55 -3.85z"/>
  <path d="M116.15 203.60 l-1.15 -0.15 0 -0.50 0 -0.55 -1.50 0.35 -1.50 0.35 0 -0.80 0 -0.80 2.65 0.30 2.60 0.30 0.50 0.45 0.45 0.45 -0.45 0.40 -0.50 0.40 -1.10 -0.20z"/>
  <path d="M109.50 201.75 c0 -0.85 0.10 -0.90 1.20 -0.45 0.45 0.15 0.80 0.50 0.80 0.75 l0 0.45 -1 0 -1 0 0 -0.75z"/>
  <path d="M166.50 195.50 l-2.10 -3.45 0.35 -0.55 0.30 -0.50 0.50 0.25 c0.50 0.35 4.45 6.85 4.45 7.40 0 0.20 -0.35 0.35 -0.75 0.35 l-0.70 0 -2.05 -3.50z"/>
  <path d="M173.95 192.15 c-0.95 -1.30 -1.85 -2.55 -2.05 -2.85 l-0.30 -0.45 -1.30 0.80 c-0.70 0.45 -1.50 0.85 -1.80 0.85 l-0.50 0 0 -0.60 0.05 -0.65 2.90 -2.10 c1.60 -1.20 3.20 -2.15 3.50 -2.15 l0.55 0 0 0.55 c0 0.30 -0.50 0.95 -1.10 1.40 l-1.10 0.90 2.10 2.90 2.05 2.95 -0.25 0.40 c-0.50 0.75 -1.05 0.40 -2.75 -1.95z"/>
  <path d="M179.50 186.25 l-3.25 -3.25 2.90 -2.85 2.85 -2.85 0.60 0.60 0.60 0.60 -2.10 2.15 c-1.15 1.15 -2.10 2.35 -2.10 2.65 0 0.30 0.80 1.25 1.75 2.20 l1.75 1.70 2.15 -2.10 2.15 -2.10 0.60 0 0.60 0 0 0.65 0 0.65 -2.65 2.60 -2.65 2.60 -3.20 -3.25z"/>
  <path d="M142.50 187.75 c0 -0.15 0.10 -0.25 0.25 -0.25 0.15 0 0.25 0.10 0.25 0.25 0 0.15 -0.10 0.25 -0.25 0.25 -0.15 0 -0.25 -0.10 -0.25 -0.25z"/>
  <path d="M141.50 187.25 c0 -0.15 0.10 -0.25 0.25 -0.25 0.15 0 0.25 0.10 0.25 0.25 0 0.15 -0.10 0.25 -0.25 0.25 -0.15 0 -0.25 -0.10 -0.25 -0.25z"/>
  <path d="M108.50 186.75 c0 -0.15 0.10 -0.25 0.25 -0.25 0.15 0 0.25 0.10 0.25 0.25 0 0.15 -0.10 0.25 -0.25 0.25 -0.15 0 -0.25 -0.10 -0.25 -0.25z"/>
  <path d="M139 186.20 c-0.95 -0.35 -4 -1.40 -6.75 -2.35 l-5 -1.75 1.30 -0.35 1.30 -0.30 5.30 2.30 c2.95 1.30 5.50 2.55 5.65 2.80 0.15 0.25 0.20 0.40 0.10 0.40 -0.10 -0.05 -0.95 -0.35 -1.90 -0.75z"/>
  <path d="M113.25 184.55 l4 -2 5.25 -1.75 5.25 -1.75 8 -1.80 c4.40 -0.95 9.40 -2.25 11.15 -2.80 6.20 -2.05 12.35 -5.95 18.45 -11.75 l3.65 -3.45 0.20 0.55 0.20 0.55 -0.40 0.70 -0.45 0.65 0.60 0.40 0.60 0.35 -2.75 2.80 -2.75 2.80 -3.50 2.40 c-1.90 1.35 -4.70 3.05 -6.20 3.80 -4.85 2.45 -7.05 3 -24.55 6.30 l-5.75 1.05 -6.50 2.15 c-3.55 1.20 -6.95 2.30 -7.50 2.45 -0.55 0.15 0.80 -0.60 3 -1.65z"/>
  <path d="M181 184.10 c0 -0.50 3.15 -3.60 3.65 -3.60 0.20 0 0.35 0.30 0.35 0.65 l0 0.65 -1.40 1.35 c-1.35 1.30 -2.60 1.75 -2.60 0.95z"/>
  <path d="M85.35 179.80 c-3.05 -1.25 -6.85 -3.65 -6.85 -4.30 l0 -0.35 2.40 -0.70 2.35 -0.70 4.50 0 4.50 0 1.60 0.90 1.65 0.85 0.75 1.20 0.75 1.15 -0.30 0.85 -0.30 0.85 -1.45 0.70 -1.40 0.75 -2.65 0 -2.65 0 -2.90 -1.20z"/>
  <path d="M154.20 179.85 l-1.35 -1.20 0.35 -1.30 0.30 -1.35 2.15 -1.05 2.10 -1.10 3.40 -0.25 3.40 -0.25 3.20 0.90 3.25 0.85 0 0.45 c0 0.20 -1.05 1.10 -2.30 2 l-2.30 1.55 -2.70 0.95 -2.70 0.95 -2.70 0 -2.75 0 -1.35 -1.15z"/>
  <path d="M117 180 c-0.95 -0.20 -4.45 -0.90 -7.75 -1.50 l-6 -1.15 -4.05 -1.45 -4.05 -1.45 -4.65 -3 -4.70 -3.05 -4.25 -4.35 -4.30 -4.30 -2.40 -3.65 c-1.35 -2 -3.30 -5.50 -4.40 -7.80 l-1.95 -4.20 -1.25 -4.65 -1.25 -4.70 -0.40 -4.90 -0.45 -4.85 0.45 -4.90 0.40 -4.85 1.25 -4.55 1.20 -4.55 1.65 -3.50 1.65 -3.55 0.60 0.70 0.65 0.65 -1.55 4.60 c-1.80 5.35 -2.75 10.10 -3.20 15.95 l-0.35 4.25 0.60 4.50 0.55 4.50 1.25 4.50 1.25 4.50 2.20 4.55 2.20 4.55 2.95 3.95 2.95 3.95 3.55 3.35 c8.20 7.70 13.60 10.30 28.55 13.65 4.25 0.95 7.85 1.85 8 2 l0.25 0.30 -0.70 0.45 c-0.85 0.55 -2.05 0.55 -4.50 0z"/>
  <path d="M187.30 178.25 c-1.60 -1.25 -3.05 -2.35 -3.20 -2.50 l-0.25 -0.25 0.90 -1 c0.50 -0.55 1.10 -1 1.40 -1 l0.45 0 -0.25 0.95 -0.25 0.95 2.25 1.60 2.20 1.60 1.25 -1.15 1.20 -1.10 0.30 0.30 0.30 0.30 -1.10 1.75 -1.10 1.80 -0.55 0 c-0.35 0 -1.95 -1.05 -3.55 -2.25z"/>
  <path d="M66 177.50 l0 -0.50 0.75 0 c0.40 0 0.75 0.10 0.75 0.20 0 0.10 -0.35 0.30 -0.75 0.50 l-0.75 0.25 0 -0.45z"/>
  <path d="M201 177.75 c0 -0.15 0.10 -0.25 0.25 -0.25 0.15 0 0.25 0.10 0.25 0.25 0 0.15 -0.10 0.25 -0.25 0.25 -0.15 0 -0.25 -0.10 -0.25 -0.25z"/>
  <path d="M63.10 174.75 c-1.35 -1.40 -1.40 -1.75 -0.20 -1.75 l0.90 0 0.85 1 c1 1.20 1.05 1.30 0.20 1.65 l-0.65 0.25 -1.10 -1.15z"/>
  <path d="M193.50 175.50 l-0.75 -0.50 0.90 0 0.85 0 0 0.50 c0 0.60 -0.05 0.60 -1 0z"/>
  <path d="M186.80 172.75 l-0.25 -0.75 0.45 0 0.50 0 0 0.75 c0 0.40 -0.10 0.75 -0.20 0.75 -0.10 0 -0.30 -0.35 -0.50 -0.75z"/>
  <path d="M75.75 170.95 l-2 -1.05 -2.85 -2.80 c-1.60 -1.55 -2.90 -3 -2.90 -3.15 l0 -0.40 2.65 -0.30 2.70 -0.35 3.05 0.80 3.10 0.75 1.95 1.30 2 1.25 0.55 0.95 c0.25 0.55 0.50 1.45 0.50 2 l0 1 -0.95 0.55 -1 0.50 -2.40 0 -2.40 -0.05 -2 -1z"/>
  <path d="M165.85 171.10 c-1.15 -1.25 -1.05 -1.75 0.45 -3.60 l1.35 -1.55 1.80 -0.90 c1 -0.50 2.70 -1.05 3.80 -1.20 l2 -0.35 1.50 0.40 1.50 0.40 0.10 1.65 0.05 1.65 -1.30 1.20 c-0.75 0.65 -2.25 1.65 -3.40 2.20 l-2 1 -2.55 0 -2.50 0 -0.80 -0.90z"/>
  <path d="M189 171.25 c0 -0.15 0.10 -0.25 0.25 -0.25 0.15 0 0.25 0.10 0.25 0.25 0 0.15 -0.10 0.25 -0.25 0.25 -0.15 0 -0.25 -0.10 -0.25 -0.25z"/>
  <path d="M95.30 169.75 l-1.35 -1.25 -0.75 -1.75 -0.70 -1.70 0 -1.85 c0 -2.05 0.95 -5.70 1.50 -5.70 0.20 0 1.40 1.15 2.70 2.50 l2.35 2.50 0.75 1.75 0.70 1.70 0 1.95 0 1.90 -0.60 0.60 -0.60 0.60 -1.35 0 -1.30 0 -1.35 -1.25z"/>
  <path d="M149.50 170.05 l-0.50 -1 0 -1.40 0 -1.40 0.95 -2 0.90 -2 2.30 -2.50 2.25 -2.50 0.60 0.60 0.65 0.60 0.25 3.50 0.25 3.50 -0.65 1.55 -0.65 1.50 -1.45 1.25 -1.50 1.25 -1.40 0 -1.45 0 -0.55 -0.95z"/>
  <path d="M86.35 163.45 l-1.35 -1 -0.70 -2.45 -0.70 -2.40 0.45 -2.15 0.50 -2.15 1.05 -1.75 1.05 -1.70 0.75 0.95 c0.40 0.55 1.35 2.30 2.15 3.95 l1.45 3 0 2.25 0 2.30 -0.80 1.10 -0.75 1.10 -0.90 0 -0.90 0 -1.30 -1.05z"/>
  <path d="M159.70 163.45 l-0.95 -1.05 0.05 -2.70 0.10 -2.70 0.85 -1.30 0.85 -1.30 0.80 0.25 c0.50 0.15 1.75 0.65 2.85 1.05 l2 0.75 -0.85 0.05 c-1.10 0 -1.15 0.35 -0.20 1.30 l0.75 0.70 -0.50 1.65 -0.45 1.60 -1.50 1.40 -1.50 1.35 -0.70 0 -0.65 0 -0.95 -1.05z"/>
  <path d="M176.50 163.25 c0 -0.15 0.10 -0.25 0.25 -0.25 0.15 0 0.25 0.10 0.25 0.25 0 0.15 -0.10 0.25 -0.25 0.25 -0.15 0 -0.25 -0.10 -0.25 -0.25z"/>
  <path d="M178 163.25 c0 -0.15 0.10 -0.25 0.25 -0.25 0.15 0 0.25 0.10 0.25 0.25 0 0.15 -0.10 0.25 -0.25 0.25 -0.15 0 -0.25 -0.10 -0.25 -0.25z"/>
  <path d="M33 161.25 c0 -0.15 0.10 -0.25 0.25 -0.25 0.15 0 0.25 0.10 0.25 0.25 0 0.15 -0.10 0.25 -0.25 0.25 -0.15 0 -0.25 -0.10 -0.25 -0.25z"/>
  <path d="M35.55 160.40 l-2.10 -1 -0.80 -1.60 c-0.45 -0.85 -0.95 -1.65 -1.15 -1.80 -0.60 -0.45 -1.90 -5 -3.25 -11.50 l-1.35 -6.25 -0.25 -10.25 -0.25 -10.25 0.80 -5.95 0.85 -5.95 1.45 -5.65 c2.10 -8.10 6.10 -18.05 8.60 -21.40 l0.75 -0.95 1.20 0.65 c0.65 0.35 1.60 1.05 2.10 1.60 l0.95 0.95 -2.50 5.60 c-3.05 6.90 -5.20 13.55 -6.55 20.25 l-1.05 5.10 -0.50 6.70 -0.55 6.70 0.55 6.40 c0.80 9.55 2.50 17.55 5.25 24.85 l1.25 3.40 -0.70 0.70 -0.65 0.70 -2.10 -1.05z"/>
  <path d="M110.25 160.10 l-3.50 -1.40 -3 -1.90 c-1.65 -1.05 -4.05 -2.85 -5.40 -3.95 l-2.40 -2.05 -2.70 -3.50 -2.70 -3.55 -1.80 -3.85 -1.75 -3.85 -1 -4.15 -1 -4.15 0 -4.75 0 -4.75 0.50 -2.25 c0.30 -1.25 0.75 -3.20 1.05 -4.35 l0.55 -2.10 0.80 -0.30 0.75 -0.30 3.40 2.05 c1.85 1.10 3.55 2.25 3.70 2.50 0.20 0.30 1.50 1.10 2.90 1.80 1.45 0.75 3.30 1.85 4.20 2.50 l1.60 1.20 0.75 0 0.80 0 0 0.55 0 0.55 -0.85 -0.35 c-0.50 -0.20 -1.55 -0.60 -2.35 -0.85 l-1.40 -0.55 -0.45 0.70 -0.45 0.70 0 -0.65 0 -0.65 -0.95 0.30 -0.95 0.30 -0.25 -0.90 -0.25 -0.90 -0.05 1.15 -0.05 1.10 0.50 0 c0.80 0 5.50 3.60 7.55 5.80 3.60 3.80 6.45 9.30 8.25 15.95 l0.80 3 0.25 6.30 0.30 6.35 -0.35 2.30 -0.35 2.30 -0.60 0 c-0.35 -0.05 -2.15 -0.65 -4.10 -1.40z"/>
  <path d="M134.25 156.15 l-0.35 -5.40 0.55 -4 c0.25 -2.25 0.75 -4.65 1 -5.40 l0.55 -1.35 -0.40 0 c-0.20 0 0 -0.25 0.40 -0.50 l0.75 -0.45 1.25 0.80 c0.70 0.50 2.05 1.30 3.05 1.90 1 0.55 3.35 2.05 5.30 3.40 1.95 1.30 3.75 2.35 4 2.35 0.30 0 1.10 0.55 1.85 1.25 l1.35 1.25 -0.50 0.95 c-0.75 1.35 -5.20 4.80 -8.85 6.85 -2.65 1.50 -8.15 3.70 -9.20 3.70 l-0.40 0 -0.35 -5.35z"/>
  <path d="M68.75 160.05 l-2 -0.95 -1.60 -1.65 c-1.80 -1.95 -4.65 -6.35 -4.65 -7.20 l0 -0.60 2.40 0.40 c2.95 0.45 5.75 1.55 8.25 3.30 l1.85 1.30 1 1.60 c0.55 0.90 1 1.95 1 2.40 l0 0.80 -0.80 0.75 -0.75 0.80 -1.35 0 -1.35 0 -2 -0.95z"/>
  <path d="M32.50 159.75 c0 -0.15 0.10 -0.25 0.25 -0.25 0.15 0 0.25 0.10 0.25 0.25 0 0.15 -0.10 0.25 -0.25 0.25 -0.15 0 -0.25 -0.10 -0.25 -0.25z"/>
  <path d="M32 158.75 c0 -0.15 0.10 -0.25 0.25 -0.25 0.15 0 0.25 0.10 0.25 0.25 0 0.15 -0.10 0.25 -0.25 0.25 -0.15 0 -0.25 -0.10 -0.25 -0.25z"/>
  <path d="M78.85 154.45 l-1.35 -1 -0.45 -1.85 -0.50 -1.85 0.40 -1.85 c0.50 -2.10 2.05 -4.75 3.50 -6.10 l1 -0.95 0.55 1.35 c0.25 0.75 0.75 2.40 1.05 3.60 l0.55 2.20 -0.20 2.55 -0.25 2.50 -1.15 1.20 c-1.40 1.50 -1.55 1.50 -3.15 0.20z"/>
  <path d="M161 152.75 c0 -0.15 0.10 -0.25 0.25 -0.25 0.15 0 0.25 0.10 0.25 0.25 0 0.15 -0.10 0.25 -0.25 0.25 -0.15 0 -0.25 -0.10 -0.25 -0.25z"/>
  <path d="M64 147.65 c-1.20 -0.45 -3.50 -2.70 -4.75 -4.70 -1.20 -1.85 -3.40 -7.95 -3.05 -8.30 0.35 -0.35 4.60 1.65 7 3.35 l2.30 1.55 1.25 2.15 1.25 2.15 0 1.75 0 1.80 -0.80 0.30 c-0.90 0.35 -2.15 0.35 -3.20 -0.05z"/>
  <path d="M72.80 143.40 c-0.40 -0.65 -0.85 -1.65 -1 -2.25 l-0.35 -1.10 0.55 -2.10 0.55 -2.05 2.30 -2.20 2.25 -2.20 0.65 0 0.70 0 0.30 2.20 0.35 2.20 -0.35 2.20 c-0.40 2.50 -0.95 3.70 -2.40 5.30 l-1 1.10 -0.95 0 -0.90 0 -0.70 -1.10z"/>
  <path d="M123.60 141.25 c-0.65 -1.70 -1.95 -4.45 -2.90 -6 l-1.70 -2.85 0 -1.10 0 -1.05 -0.45 0.70 -0.45 0.65 -0.60 -1.90 -0.65 -1.95 -0.20 0.60 -0.20 0.60 -1.25 -1.25 -1.25 -1.25 0.15 -0.55 0.20 -0.55 2.10 1.85 2.05 1.85 1.80 0.50 1.80 0.50 -0.25 0.40 -0.25 0.35 2.10 0.55 2.10 0.60 1.10 1 c0.60 0.60 1.35 1.05 1.65 1.05 0.75 0 0.70 0.20 -1.25 4.55 -0.95 2.20 -1.75 4.30 -1.75 4.70 0 0.40 -0.20 0.80 -0.40 0.95 l-0.40 0.25 -1.10 -3.20z"/>
  <path d="M59.80 132.45 l-1.75 -1.50 -1.05 -2.75 -1 -2.75 0 -3.25 0 -3.25 1.10 0.60 c0.60 0.35 2.25 1.75 3.65 3.15 l2.55 2.55 0.85 2.45 c0.45 1.35 0.85 2.95 0.85 3.55 l0 1.10 -0.90 0.80 -0.95 0.85 -0.80 0 -0.80 0 -1.75 -1.55z"/>
  <path d="M41.65 132.35 l-2.10 -0.60 -0.90 -0.90 -0.90 -0.90 -0.15 -3.85 -0.20 -3.90 0.80 -0.65 0.80 -0.70 3 0.65 2.95 0.60 1.05 1.15 1.05 1.10 -0.15 4.20 -0.15 4.20 -1.50 0.10 -1.50 0.05 -2.10 -0.55z m3.55 -3.10 l0.25 -0.75 -0.25 -1.50 -0.30 -1.45 -1.55 -0.50 c-0.80 -0.30 -2.05 -0.55 -2.70 -0.55 l-1.20 0 0.15 2.10 0.15 2.10 2.25 0.60 c3 0.80 2.85 0.80 3.20 -0.05z"/>
  <path d="M69.95 131.70 l-0.70 -0.85 0.05 -1.80 0.05 -1.85 0.85 -1.60 0.85 -1.60 1.85 -1.25 1.85 -1.25 1.65 -0.30 1.65 -0.35 -0.30 1.45 c-0.20 0.80 -0.65 2.65 -1.10 4.15 l-0.75 2.75 -1.65 1.65 -1.65 1.65 -1 0 -1 0 -0.65 -0.80z"/>
  <path d="M118 127.25 c0 -0.15 0.10 -0.25 0.25 -0.25 0.15 0 0.25 0.10 0.25 0.25 0 0.15 -0.10 0.25 -0.25 0.25 -0.15 0 -0.25 -0.10 -0.25 -0.25z"/>
  <path d="M111.55 123.70 l0.05 -0.95 0.25 0.65 0.25 0.65 -0.30 0.30 -0.30 0.30 0.05 -0.95z"/>
  <path d="M70.30 119.90 l-0.80 -0.45 0 -1.95 0 -1.90 1.35 -1.65 1.35 -1.60 2.05 -0.90 2 -0.95 1.65 0 1.60 0 0 0.55 c0 0.30 -0.70 1.90 -1.60 3.55 l-1.60 3 -1.50 1.15 c-0.85 0.60 -2 1.25 -2.60 1.35 l-1.05 0.25 -0.85 -0.45z"/>
  <path d="M60.30 117.95 l-1.30 -1.55 -0.35 -1.30 c-0.20 -0.75 -0.35 -2.60 -0.30 -4.10 0.05 -1.50 0.10 -5.55 0.15 -9 l0.10 -6.25 0.70 3.95 0.65 3.95 1.45 2.05 c0.80 1.15 1.95 3 2.55 4.15 l1.05 2.10 0 2.95 0 2.95 -0.90 0.80 -0.95 0.85 -0.75 0 -0.80 0 -1.30 -1.55z"/>
  <path d="M42.65 116.50 l-4.15 -1.75 0 -1.60 c0 -1.90 -0.15 -1.85 2.25 -0.85 1 0.40 1.95 0.65 2.10 0.50 0.15 -0.10 0.35 -1.10 0.50 -2.20 l0.25 -2 -1.10 -0.35 -1.10 -0.35 -0.45 0.65 c-0.25 0.40 -0.45 1.10 -0.45 1.65 l0 0.90 -0.80 -0.65 -0.80 -0.65 0.35 -1.75 c0.15 -1 0.40 -2.20 0.55 -2.65 l0.25 -0.90 1.25 0 1.30 0 1.50 1.55 1.55 1.55 1.45 -0.30 1.45 -0.30 -0.15 1.65 -0.15 1.60 -1.60 0.15 -1.65 0.15 0 0.60 c0 0.35 -0.15 1.10 -0.30 1.70 l-0.30 1.15 1.30 0.50 1.35 0.50 0.25 0.65 0.25 0.65 -0.40 1 -0.40 1 -4.10 -1.80z"/>
  <path d="M73.40 107.95 l-0.90 -0.50 0 -1.35 0.05 -1.35 1.20 -1.45 1.20 -1.50 0.85 -0.10 0.85 -0.15 1.50 0.75 1.45 0.75 -0.40 0.85 c-0.15 0.45 -0.30 1.35 -0.30 1.90 l0.10 1.10 -2 0.80 c-2.35 0.95 -2.45 0.95 -3.60 0.25z"/>
  <path d="M87.50 108.25 c0 -0.15 0.10 -0.25 0.25 -0.25 0.15 0 0.25 0.10 0.25 0.25 0 0.15 -0.10 0.25 -0.25 0.25 -0.15 0 -0.25 -0.10 -0.25 -0.25z"/>
  <path d="M88 107.25 c0 -0.15 0.10 -0.25 0.25 -0.25 0.15 0 0.25 0.10 0.25 0.25 0 0.15 -0.10 0.25 -0.25 0.25 -0.15 0 -0.25 -0.10 -0.25 -0.25z"/>
  <path d="M64.15 104.15 l-0.90 -1.35 0.05 -3.05 c0.05 -3.15 0.25 -4.45 0.85 -5.10 l0.40 -0.35 1.60 0.80 c0.90 0.45 2 0.95 2.50 1.10 l0.85 0.25 0 1.95 c0 1.10 -0.15 2.65 -0.30 3.50 l-0.30 1.55 -1 1 -0.95 1.05 -0.95 0 -1 0 -0.85 -1.35z"/>
  <path d="M45.80 100.50 c-1.90 -1.35 -3.50 -2.55 -3.65 -2.70 -0.30 -0.25 2.30 -7.55 3.05 -8.60 l0.65 -0.85 1.20 0.65 c0.65 0.35 1.45 0.95 1.70 1.25 0.30 0.35 1.10 0.75 1.85 0.95 l1.35 0.30 0.60 1.10 0.55 1.05 -0.60 2.05 c-1.05 3.55 -2.55 7.30 -2.90 7.30 -0.20 -0.05 -1.90 -1.15 -3.80 -2.50z m4.20 -2.95 l0.60 -1.45 -0.20 -0.90 -0.15 -0.85 -0.55 -0.20 -0.60 -0.20 -0.55 1.55 -0.50 1.60 -0.60 -0.40 -0.55 -0.35 0.25 -1.65 0.30 -1.65 -0.75 -0.60 -0.70 -0.55 -0.80 1.85 c-0.40 1 -0.70 1.95 -0.60 2.05 0.55 0.55 4.20 3.15 4.45 3.15 0.20 0.05 0.60 -0.60 0.95 -1.40z"/>
  <path d="M68 93.75 c0 -0.15 0.10 -0.25 0.25 -0.25 0.15 0 0.25 0.10 0.25 0.25 0 0.15 -0.10 0.25 -0.25 0.25 -0.15 0 -0.25 -0.10 -0.25 -0.25z"/>
  <path d="M38.50 77.25 c0 -0.15 0.10 -0.25 0.25 -0.25 0.15 0 0.25 0.10 0.25 0.25 0 0.15 -0.10 0.25 -0.25 0.25 -0.15 0 -0.25 -0.10 -0.25 -0.25z"/>
 </g>
</svg>